<svg id="Layer_1" data-name="Layer 1" xmlns="http://www.w3.org/2000/svg" viewBox="0 0 130.39 109.45"><defs><style>.cls-1{fill:#fff;}</style></defs><title>cartlogo</title><path class="cls-1" d="M518.79,339.15c.84,2.15.44,4.21-.26,6.32-4.34,12.92-8.75,25.83-12.88,38.83-1.16,3.66-3.08,4.89-6.84,4.86-20.15-.15-40.31,0-60.46-.16-3.55,0-4.57.59-3.32,4.35,3.45,10.4,3.29,10.42,14.49,10.45,15,0,30,0,45,.29,6.26.11,10.46,4.59,10.45,10.37a10.78,10.78,0,0,1-10.22,10.88c-6,.34-11.34-3.85-11.37-10,0-4.09-1.52-4.5-4.87-4.43-9.32.18-18.65.06-28,.07-2,0-3.71-.43-3.76,2.9-.1,7.61-4.93,11.91-12.72,12.11-3.35-2.14-7.51-3.21-8.55-8.06-1-4.48-.34-8.73,3.1-11.34,2.64-2,2.08-3.93,1.41-5.81-4.92-13.75-8.82-27.83-14.28-41.42-2.23-5.57-3.42-11.7-5.58-17.43-1.54-4.85-3.19-9.67-4.59-14.56-.77-2.67-2.23-3.5-5-3.6-3.83-.15-7.92,1.38-11.48-1.29-.81-4.26.94-6.14,5.27-5.93,5.08.23,10.19-.41,15.24.58.28.79.45,1.65,1.37,2l-.1,0c.54,5.18,3.33,9.71,4.34,14.74.73,3.64,2.65,4.54,6.24,4.52,30.22-.16,60.45-.1,90.67-.13a17,17,0,0,1,6.85.92Z" transform="translate(-388.87 -316.49)"/></svg>