<svg id="Layer_1" data-name="Layer 1" xmlns="http://www.w3.org/2000/svg" viewBox="0 0 112.48 112.48"><defs><style>.cls-1{fill:#050505;}.cls-2{fill:#fafafa;}</style></defs><title>profile</title><path class="cls-1" d="M684.26,328.26a56.24,56.24,0,1,1-56,56.36A56.26,56.26,0,0,1,684.26,328.26Zm-39.5,87.61c1.21-.69,1-2,1.33-3.07a40.27,40.27,0,0,1,21.71-24.72,7.59,7.59,0,0,1,7.06-.19c5.47,2.55,11.56,3.36,16.94.75s9.5-.77,13.8,1.85a40,40,0,0,1,10.7,9.6c3.75,4.74,5.82,10.28,7.7,16.12,16.91-20,14.69-50.49-4.7-68.84a50.9,50.9,0,0,0-70,.37C630.26,366.14,628.2,396.84,644.76,415.87Z" transform="translate(-628.26 -328.26)"/><path class="cls-2" d="M644.75,415.87c-16.55-19-14.49-49.73,4.57-68.13a50.9,50.9,0,0,1,70-.37c19.39,18.35,21.61,48.87,4.7,68.84-1.88-5.84-4-11.38-7.7-16.12a40,40,0,0,0-10.7-9.6c-4.3-2.62-8.33-4.5-13.8-1.85s-11.47,1.8-16.94-.75a7.59,7.59,0,0,0-7.06.19,40.27,40.27,0,0,0-21.71,24.72C645.74,413.86,646,415.18,644.75,415.87Zm39.36-31.56a20,20,0,1,0,.53-39.94,19.87,19.87,0,0,0-20.11,19.75A19.65,19.65,0,0,0,684.11,384.31Z" transform="translate(-628.26 -328.26)"/><path class="cls-1" d="M684.11,384.31a19.65,19.65,0,0,1-19.58-20.19,20,20,0,0,1,39.94.27A19.66,19.66,0,0,1,684.11,384.31Z" transform="translate(-628.26 -328.26)"/></svg>